REM DIRINDEX 1\2,1\3,1\4,1\5
REM DIRNAME folder01,folder02,folder03,folder04,folder05
TITLE ""
FILE "1800_145.mp3" MP3
  TRACK 01 AUDIO
    TITLE "2:cjc044_4413"
    INDEX 01 00:00:00
  TRACK 02 AUDIO
    TITLE "0:"
    INDEX 01 00:01:07
  TRACK 03 AUDIO
    TITLE "3:cjc044_4414"
    INDEX 01 00:01:62
  TRACK 04 AUDIO
    TITLE "0:"
    INDEX 01 00:03:00
  TRACK 05 AUDIO
    TITLE "4:cjc044_4415"
    INDEX 01 00:03:59
  TRACK 06 AUDIO
    TITLE "0:"
    INDEX 01 00:05:01
  TRACK 07 AUDIO
    TITLE "2:cjc044_4416"
    INDEX 01 00:06:53
  TRACK 08 AUDIO
    TITLE "0:"
    INDEX 01 00:08:13
  TRACK 09 AUDIO
    TITLE "3:cjc044_4417"
    INDEX 01 00:08:58
  TRACK 10 AUDIO
    TITLE "0:"
    INDEX 01 00:09:69
  TRACK 11 AUDIO
    TITLE "4:cjc044_4418"
    INDEX 01 00:10:51
  TRACK 12 AUDIO
    TITLE "0:"
    INDEX 01 00:12:07
  TRACK 13 AUDIO
    TITLE "2:cjc044_4419"
    INDEX 01 00:13:57
  TRACK 14 AUDIO
    TITLE "0:"
    INDEX 01 00:14:72
  TRACK 15 AUDIO
    TITLE "3:cjc044_4420"
    INDEX 01 00:15:58
  TRACK 16 AUDIO
    TITLE "0:"
    INDEX 01 00:17:04
  TRACK 17 AUDIO
    TITLE "4:cjc044_4421"
    INDEX 01 00:17:59
  TRACK 18 AUDIO
    TITLE "0:"
    INDEX 01 00:19:03
  TRACK 19 AUDIO
    TITLE "2:cjc044_4422"
    INDEX 01 00:20:61
  TRACK 20 AUDIO
    TITLE "0:"
    INDEX 01 00:22:09
  TRACK 21 AUDIO
    TITLE "3:cjc044_4423"
    INDEX 01 00:22:66
  TRACK 22 AUDIO
    TITLE "0:"
    INDEX 01 00:24:00
  TRACK 23 AUDIO
    TITLE "4:cjc044_4424"
    INDEX 01 00:24:57
  TRACK 24 AUDIO
    TITLE "0:"
    INDEX 01 00:26:07
  TRACK 25 AUDIO
    TITLE "2:cjc044_4425"
    INDEX 01 00:27:59
  TRACK 26 AUDIO
    TITLE "0:"
    INDEX 01 00:28:72
  TRACK 27 AUDIO
    TITLE "3:cjc044_4426"
    INDEX 01 00:29:46
  TRACK 28 AUDIO
    TITLE "0:"
    INDEX 01 00:30:57
  TRACK 29 AUDIO
    TITLE "4:cjc044_4427"
    INDEX 01 00:31:45
  TRACK 30 AUDIO
    TITLE "0:"
    INDEX 01 00:32:58
  TRACK 31 AUDIO
    TITLE "2:cjc044_4428"
    INDEX 01 00:34:38
  TRACK 32 AUDIO
    TITLE "0:"
    INDEX 01 00:35:63
  TRACK 33 AUDIO
    TITLE "3:cjc044_4429"
    INDEX 01 00:36:42
  TRACK 34 AUDIO
    TITLE "0:"
    INDEX 01 00:37:46
  TRACK 35 AUDIO
    TITLE "4:cjc044_4430"
    INDEX 01 00:38:33
  TRACK 36 AUDIO
    TITLE "0:"
    INDEX 01 00:39:58
  TRACK 37 AUDIO
    TITLE "2:cjc044_4431"
    INDEX 01 00:41:38
  TRACK 38 AUDIO
    TITLE "0:"
    INDEX 01 00:42:66
  TRACK 39 AUDIO
    TITLE "3:cjc044_4432"
    INDEX 01 00:43:44
  TRACK 40 AUDIO
    TITLE "0:"
    INDEX 01 00:44:58
  TRACK 41 AUDIO
    TITLE "4:cjc044_4433"
    INDEX 01 00:45:35
  TRACK 42 AUDIO
    TITLE "0:"
    INDEX 01 00:46:66
  TRACK 43 AUDIO
    TITLE "2:cjc044_4434"
    INDEX 01 00:48:46
  TRACK 44 AUDIO
    TITLE "0:"
    INDEX 01 00:50:05
  TRACK 45 AUDIO
    TITLE "3:cjc044_4435"
    INDEX 01 00:50:60
  TRACK 46 AUDIO
    TITLE "0:"
    INDEX 01 00:51:52
  TRACK 47 AUDIO
    TITLE "4:cjc044_4436"
    INDEX 01 00:52:34
  TRACK 48 AUDIO
    TITLE "0:"
    INDEX 01 00:53:68
  TRACK 49 AUDIO
    TITLE "2:cjc044_4437"
    INDEX 01 00:55:50
  TRACK 50 AUDIO
    TITLE "0:"
    INDEX 01 00:57:09
  TRACK 51 AUDIO
    TITLE "3:cjc044_4438"
    INDEX 01 00:57:60
  TRACK 52 AUDIO
    TITLE "0:"
    INDEX 01 00:58:67
  TRACK 53 AUDIO
    TITLE "4:cjc044_4439"
    INDEX 01 00:59:53
  TRACK 54 AUDIO
    TITLE "0:"
    INDEX 01 01:01:13
  TRACK 55 AUDIO
    TITLE "2:cjc044_4440"
    INDEX 01 01:02:71
  TRACK 56 AUDIO
    TITLE "0:"
    INDEX 01 01:04:13
  TRACK 57 AUDIO
    TITLE "3:cjc044_4441"
    INDEX 01 01:04:68
  TRACK 58 AUDIO
    TITLE "0:"
    INDEX 01 01:05:71
  TRACK 59 AUDIO
    TITLE "4:cjc044_4442"
    INDEX 01 01:06:53
  TRACK 60 AUDIO
    TITLE "0:"
    INDEX 01 01:07:72
  TRACK 61 AUDIO
    TITLE "2:cjc044_4443"
    INDEX 01 01:09:56
  TRACK 62 AUDIO
    TITLE "0:"
    INDEX 01 01:11:03
  TRACK 63 AUDIO
    TITLE "3:cjc044_4444"
    INDEX 01 01:11:62
  TRACK 64 AUDIO
    TITLE "0:"
    INDEX 01 01:13:16
  TRACK 65 AUDIO
    TITLE "4:cjc044_4445"
    INDEX 01 01:14:00
  TRACK 66 AUDIO
    TITLE "0:"
    INDEX 01 01:15:25
  TRACK 67 AUDIO
    TITLE "2:cjc044_4446"
    INDEX 01 01:17:08
  TRACK 68 AUDIO
    TITLE "0:"
    INDEX 01 01:18:27
  TRACK 69 AUDIO
    TITLE "3:cjc044_4447"
    INDEX 01 01:19:17
  TRACK 70 AUDIO
    TITLE "0:"
    INDEX 01 01:20:67
  TRACK 71 AUDIO
    TITLE "4:cjc044_4448"
    INDEX 01 01:21:51
  TRACK 72 AUDIO
    TITLE "0:"
    INDEX 01 01:23:01
  TRACK 73 AUDIO
    TITLE "2:cjc044_4449"
    INDEX 01 01:24:61
  TRACK 74 AUDIO
    TITLE "0:"
    INDEX 01 01:26:01
  TRACK 75 AUDIO
    TITLE "3:cjc044_4450"
    INDEX 01 01:26:52
  TRACK 76 AUDIO
    TITLE "0:"
    INDEX 01 01:27:50
  TRACK 77 AUDIO
    TITLE "4:cjc044_4451"
    INDEX 01 01:28:31
  TRACK 78 AUDIO
    TITLE "0:"
    INDEX 01 01:29:46
  TRACK 79 AUDIO
    TITLE "2:cjc044_4452"
    INDEX 01 01:31:28
  TRACK 80 AUDIO
    TITLE "0:"
    INDEX 01 01:32:51
  TRACK 81 AUDIO
    TITLE "3:cjc044_4453"
    INDEX 01 01:33:33
  TRACK 82 AUDIO
    TITLE "0:"
    INDEX 01 01:34:40
  TRACK 83 AUDIO
    TITLE "4:cjc044_4454"
    INDEX 01 01:35:24
  TRACK 84 AUDIO
    TITLE "0:"
    INDEX 01 01:36:52
  TRACK 85 AUDIO
    TITLE "2:cjc044_4455"
    INDEX 01 01:38:38
  TRACK 86 AUDIO
    TITLE "0:"
    INDEX 01 01:39:64
  TRACK 87 AUDIO
    TITLE "3:cjc044_4456"
    INDEX 01 01:40:50
  TRACK 88 AUDIO
    TITLE "0:"
    INDEX 01 01:41:67
  TRACK 89 AUDIO
    TITLE "4:cjc044_4457"
    INDEX 01 01:42:51
  TRACK 90 AUDIO
    TITLE "0:"
    INDEX 01 01:44:01
  TRACK 91 AUDIO
    TITLE "2:cjc044_4458"
    INDEX 01 01:45:71
  TRACK 92 AUDIO
    TITLE "0:"
    INDEX 01 01:47:13
  TRACK 93 AUDIO
    TITLE "3:cjc044_4459"
    INDEX 01 01:47:74
  TRACK 94 AUDIO
    TITLE "0:"
    INDEX 01 01:48:73
  TRACK 95 AUDIO
    TITLE "4:cjc044_4460"
    INDEX 01 01:49:63
  TRACK 96 AUDIO
    TITLE "0:"
    INDEX 01 01:51:07
  TRACK 97 AUDIO
    TITLE "2:cjc044_4461"
    INDEX 01 01:52:67
  TRACK 98 AUDIO
    TITLE "0:"
    INDEX 01 01:54:19
  TRACK 99 AUDIO
    TITLE "3:cjc044_4462"
    INDEX 01 01:55:07
  TRACK 100 AUDIO
    TITLE "0:"
    INDEX 01 01:56:28
  TRACK 101 AUDIO
    TITLE "4:cjc044_4463"
    INDEX 01 01:57:09
  TRACK 102 AUDIO
    TITLE "0:"
    INDEX 01 01:58:40
